<?xml version="1.0" encoding="UTF-8"?>
<svg xmlns="http://www.w3.org/2000/svg" width="900" height="600">
<rect width="900" height="600" fill="white"/>
<path fill="#435024"
d="M 240.875 369.6875 C 240.3095 369.6775 239.71919 369.7499 239.15625 369.9375 L 238.5625 370.125 L 238.46875 370.75 C 238.46875 370.75 238.08383 374.05315 238.375 378.125 C 238.66612 382.19685 239.59192 387.114 242.5 390.4375 C 245.28794 393.62374 249.87202 396.85537 254.375 399.4375 C 258.87798 402.01963 263.18571 403.94241 265.78125 404.375 C 266.20354 404.4454 266.6481 404.4193 267.0625 404.21875 C 267.4769 404.0182 267.78337 403.62493 267.9375 403.25 C 268.24576 402.50013 268.15716 401.75354 268 400.90625 C 267.68569 399.21166 266.86383 397.0943 265.90625 394.9375 C 263.99109 390.6239 261.53125 386.25 261.53125 386.25 L 261.5 386.1875 L 261.4375 386.125 C 261.4375 386.125 258.26304 382.11347 254.15625 378.0625 C 252.10286 376.03701 249.80215 374.00207 247.53125 372.4375 C 245.26035 370.87293 243.03544 369.72496 240.875 369.6875 z M 601.3125 369.6875 C 599.15206 369.72496 596.92715 370.87293 594.65625 372.4375 C 592.38535 374.00207 590.08464 376.03701 588.03125 378.0625 C 583.92446 382.11347 580.75 386.125 580.75 386.125 L 580.6875 386.1875 L 580.65625 386.25 C 580.65625 386.25 578.19641 390.6239 576.28125 394.9375 C 575.32367 397.0943 574.50181 399.21166 574.1875 400.90625 C 574.03034 401.75354 573.94174 402.50013 574.25 403.25 C 574.40413 403.62493 574.7106 404.0182 575.125 404.21875 C 575.5394 404.4193 575.98396 404.4454 576.40625 404.375 C 579.00179 403.94241 583.30952 402.01963 587.8125 399.4375 C 592.31548 396.85537 596.89956 393.62374 599.6875 390.4375 C 602.59558 387.114 603.52138 382.19685 603.8125 378.125 C 604.10372 374.05315 603.71875 370.75 603.71875 370.75 L 603.625 370.125 L 603.03125 369.9375 C 602.46831 369.7499 601.878 369.6775 601.3125 369.6875 z M 267.75 376.9375 L 267.96875 378.5625 C 267.96875 378.5625 268.34518 381.20307 268.71875 384.3125 C 269.09232 387.42193 269.46875 391.05499 269.46875 392.8125 C 269.46875 395.23696 271.10771 398.03066 272.65625 400.4375 C 274.20479 402.84434 275.75 404.75 275.75 404.75 L 277.28125 406.65625 L 277.53125 404.21875 C 277.53125 404.21875 278.28125 396.65656 278.28125 389.03125 C 278.28125 380.73897 269.3125 377.5 269.3125 377.5 L 267.75 376.9375 z M 574.4375 376.9375 L 572.875 377.5 C 572.875 377.5 563.90625 380.73897 563.90625 389.03125 C 563.90625 396.65656 564.65625 404.21875 564.65625 404.21875 L 564.90625 406.65625 L 566.4375 404.75 C 566.4375 404.75 567.98271 402.84434 569.53125 400.4375 C 571.07979 398.03066 572.71875 395.23696 572.71875 392.8125 C 572.71875 391.05499 573.09518 387.42193 573.46875 384.3125 C 573.84232 381.20307 574.21875 378.5625 574.21875 378.5625 L 574.4375 376.9375 z M 287.40625 401.375 C 285.38548 401.50205 284.09375 402.21875 284.09375 402.21875 L 283.3125 402.65625 L 283.65625 403.46875 C 288.53301 415.1188 295.20727 422.62116 300.65625 427.1875 C 306.10523 431.75384 310.40625 433.4375 310.40625 433.4375 L 312.34375 434.1875 L 311.75 432.1875 C 307.67936 419.23544 303.25441 411.61229 299.125 407.15625 C 294.99559 402.70021 291.10195 401.45425 288.3125 401.375 C 287.99556 401.366 287.69493 401.35685 287.40625 401.375 z M 553.875 401.375 C 551.08555 401.45425 547.19191 402.70021 543.0625 407.15625 C 538.93309 411.61229 534.50814 419.23544 530.4375 432.1875 L 529.84375 434.1875 L 531.78125 433.4375 C 531.78125 433.4375 536.08227 431.75384 541.53125 427.1875 C 546.98023 422.62116 553.65449 415.1188 558.53125 403.46875 L 558.875 402.65625 L 558.09375 402.21875 C 558.09375 402.21875 556.80202 401.50205 554.78125 401.375 C 554.49257 401.3569 554.19194 401.366 553.875 401.375 z M 240.625 402.34375 L 240.75 403.5 C 240.75 403.5 241.14444 406.66191 242.625 410.03125 C 244.10556 413.40059 246.76538 417.13065 251.375 417.96875 C 259.85323 419.51025 267.53125 418.75 267.53125 418.75 L 268.4375 418.65625 L 268.4375 417.75 C 268.4375 417.75 268.3966 413.89391 264.96875 410.15625 C 261.54089 406.41859 254.80827 402.75815 241.78125 402.375 L 240.625 402.34375 z M 601.5625 402.34375 L 600.40625 402.375 C 587.37923 402.75815 580.64661 406.41859 577.21875 410.15625 C 573.7909 413.89391 573.75 417.75 573.75 417.75 L 573.75 418.65625 L 574.65625 418.75 C 574.65625 418.75 582.33427 419.51025 590.8125 417.96875 C 595.42212 417.13065 598.08194 413.40059 599.5625 410.03125 C 601.04306 406.66191 601.4375 403.5 601.4375 403.5 L 601.5625 402.34375 z M 272.46875 407.8125 C 271.56642 407.8464 270.96875 408 270.96875 408 L 270.15625 408.21875 L 270.21875 409.0625 C 271.05733 418.56625 277.61752 424.82277 283.84375 428.65625 C 290.06998 432.48973 296.09375 434 296.09375 434 L 298.09375 434.5 L 297.25 432.625 C 292.20796 421.22558 287.04038 414.97526 282.59375 411.59375 C 278.14712 408.21224 274.43549 407.73871 272.46875 407.8125 z M 568.90625 407.8125 C 566.81746 407.89993 563.48455 408.63493 559.59375 411.59375 C 555.14712 414.97526 549.97954 421.22558 544.9375 432.625 L 544.09375 434.5 L 546.09375 434 C 546.09375 434 552.11752 432.48973 558.34375 428.65625 C 564.56998 424.82277 571.13017 418.56625 571.96875 409.0625 L 572.03125 408.21875 L 571.21875 408 C 571.21875 408 570.62108 407.8464 569.71875 407.8125 C 569.47291 407.80328 569.20465 407.80001 568.90625 407.8125 z M 268.25 422.625 C 267.40248 422.6375 266.50264 422.74934 265.625 422.96875 L 264.96875 423.125 L 264.875 423.8125 C 264.875 423.8125 264.56652 425.89991 265.5 428.0625 C 266.43348 430.22509 268.80777 432.40625 273.375 432.40625 C 275.4823 432.40625 277.00824 431.89652 277.75 430.71875 C 278.49176 429.54098 278.12802 428.0712 277.34375 426.90625 C 275.77521 424.57634 272.33134 422.56488 268.25 422.625 z M 573.9375 422.625 C 569.85616 422.56488 566.41229 424.57634 564.84375 426.90625 C 564.05948 428.0712 563.69574 429.54098 564.4375 430.71875 C 565.17926 431.89652 566.7052 432.40625 568.8125 432.40625 C 573.37973 432.40625 575.75402 430.22509 576.6875 428.0625 C 577.62098 425.89991 577.3125 423.8125 577.3125 423.8125 L 577.21875 423.125 L 576.5625 422.96875 C 575.68486 422.74934 574.78502 422.6375 573.9375 422.625 z M 315.03125 426.3125 C 314.40117 426.3283 313.7388 426.47541 313.09375 426.75 L 312.5625 426.96875 L 312.5 427.5625 C 312.5 427.5625 312.29629 429.78754 312.875 432.09375 C 313.16436 433.24686 313.639 434.47164 314.53125 435.4375 C 315.4235 436.40336 316.77576 437.0625 318.4375 437.0625 C 320.0075 437.0625 321.24797 436.21263 321.6875 435.03125 C 322.12703 433.84987 321.93247 432.53655 321.4375 431.28125 C 320.44757 428.77065 318.10055 426.23552 315.03125 426.3125 z M 526.59375 426.3125 C 523.80325 426.53678 521.67806 428.92756 520.75 431.28125 C 520.25503 432.53655 520.06047 433.84987 520.5 435.03125 C 520.93953 436.21263 522.18 437.0625 523.75 437.0625 C 525.41174 437.0625 526.764 436.40336 527.65625 435.4375 C 528.5485 434.47164 529.02314 433.24686 529.3125 432.09375 C 529.89121 429.78754 529.6875 427.5625 529.6875 427.5625 L 529.625 426.96875 L 529.09375 426.75 C 528.4487 426.47541 527.78633 426.3283 527.15625 426.3125 C 526.96442 426.30769 526.77978 426.29755 526.59375 426.3125 z M 329.09375 431.03125 C 326.59731 431.09437 324.96875 431.53125 324.96875 431.53125 L 324 431.78125 L 324.25 432.75 C 324.25 432.75 325.40806 437.13764 329.6875 441.90625 C 333.96694 446.67486 341.40382 451.90995 353.90625 453.8125 L 355.53125 454.0625 L 355 452.5 C 349.00825 434.5247 337.07178 431.18087 330.21875 431.03125 C 329.82912 431.02274 329.45038 431.02223 329.09375 431.03125 z M 511.96875 431.03125 C 505.11572 431.18087 493.17925 434.5247 487.1875 452.5 L 486.65625 454.0625 L 488.28125 453.8125 C 500.78368 451.90995 508.22056 446.67486 512.5 441.90625 C 516.77944 437.13764 517.9375 432.75 517.9375 432.75 L 518.1875 431.78125 L 517.21875 431.53125 C 517.21875 431.53125 515.59019 431.09435 513.09375 431.03125 C 512.73712 431.02225 512.35838 431.02225 511.96875 431.03125 z M 275.8125 433.34375 C 269.52637 433.44045 265.0625 434.71875 265.0625 434.71875 L 264.46875 434.90625 L 264.34375 435.53125 C 264.34375 435.53125 264.2563 436.12744 264.375 436.90625 C 264.49371 437.68506 264.8102 438.7128 265.5625 439.84375 C 267.0671 442.10565 270.2709 444.63804 276.84375 446.28125 C 289.95755 449.5597 301.4375 446.28125 301.4375 446.28125 L 302.75 445.90625 L 302 444.75 C 302 444.75 296.41145 436.40728 285.3125 434.1875 C 281.88765 433.50254 278.66789 433.29982 275.8125 433.34375 z M 566.375 433.34375 C 563.51961 433.29982 560.29985 433.50254 556.875 434.1875 C 545.77605 436.40728 540.1875 444.75 540.1875 444.75 L 539.4375 445.90625 L 540.75 446.28125 C 540.75 446.28125 552.22995 449.5597 565.34375 446.28125 C 571.9166 444.63804 575.1204 442.10565 576.625 439.84375 C 577.3773 438.7128 577.69379 437.68506 577.8125 436.90625 C 577.9311 436.12744 577.84375 435.53125 577.84375 435.53125 L 577.71875 434.90625 L 577.125 434.71875 C 577.125 434.71875 572.66113 433.44045 566.375 433.34375 z M 307.71875 436.25 C 305.0725 436.3016 303.46875 436.90625 303.46875 436.90625 L 302.71875 437.21875 L 302.84375 438 C 302.84375 438 303.06818 439.1475 303.84375 440.71875 C 304.61932 442.29 305.97514 444.37482 308.3125 446.46875 C 312.98722 450.65662 321.53563 454.86584 336.9375 455.40625 L 339.21875 455.5 L 337.71875 453.75 C 324.70804 438.50889 313.52887 436.13667 307.71875 436.25 z M 533.3125 436.25 C 527.24928 436.47305 516.66629 439.46146 504.46875 453.75 L 502.96875 455.5 L 505.25 455.40625 C 520.65187 454.86584 529.20028 450.65662 533.875 446.46875 C 536.21236 444.37482 537.56818 442.29 538.34375 440.71875 C 539.11932 439.1475 539.34375 438 539.34375 438 L 539.46875 437.21875 L 538.71875 436.90625 C 538.71875 436.90625 537.115 436.3016 534.46875 436.25 C 534.10562 436.24292 533.71671 436.23513 533.3125 436.25 z M 362.0625 445.8125 C 361.43242 445.8283 360.77005 445.97541 360.125 446.25 L 359.59375 446.46875 L 359.53125 447.0625 C 359.53125 447.0625 359.32788 449.3116 359.90625 451.625 C 360.19543 452.7817 360.67063 453.96846 361.5625 454.9375 C 362.45437 455.90654 363.80609 456.59375 365.46875 456.59375 C 367.03977 456.59375 368.31122 455.74602 368.75 454.5625 C 369.18878 453.37898 368.96337 452.04013 368.46875 450.78125 C 367.4795 448.26349 365.13391 445.73547 362.0625 445.8125 z M 479.5625 445.8125 C 476.77042 446.03599 474.64617 448.42085 473.71875 450.78125 C 473.22413 452.04013 472.99872 453.37898 473.4375 454.5625 C 473.87628 455.74602 475.14773 456.59375 476.71875 456.59375 C 478.38141 456.59375 479.73313 455.90654 480.625 454.9375 C 481.51687 453.96846 481.99207 452.7817 482.28125 451.625 C 482.85962 449.3116 482.65625 447.0625 482.65625 447.0625 L 482.59375 446.46875 L 482.0625 446.25 C 481.41745 445.97541 480.75508 445.8283 480.125 445.8125 C 479.93304 445.80769 479.74864 445.7976 479.5625 445.8125 z M 304.25 448.25 C 303.74953 448.2641 303.18255 448.35919 302.625 448.625 L 302.09375 448.875 L 302.0625 449.46875 C 302.0625 449.46875 301.91584 451.40875 302.375 453.4375 C 302.60458 454.45188 302.96639 455.50042 303.6875 456.375 C 304.40861 457.24958 305.55596 457.90625 306.9375 457.90625 C 308.2607 457.90625 309.34167 457.05247 309.6875 456 C 310.03333 454.94753 309.8923 453.82513 309.5 452.71875 C 309.1077 451.61237 308.43759 450.52859 307.5625 449.6875 C 306.68741 448.84641 305.55049 448.21347 304.25 448.25 z M 537.9375 448.25 C 536.63701 448.21347 535.50009 448.84641 534.625 449.6875 C 533.74991 450.52859 533.0798 451.61237 532.6875 452.71875 C 532.2952 453.82513 532.15417 454.94753 532.5 456 C 532.84583 457.05247 533.9268 457.90625 535.25 457.90625 C 536.63154 457.90625 537.77889 457.24958 538.5 456.375 C 539.22111 455.50042 539.58292 454.45188 539.8125 453.4375 C 540.27166 451.40875 540.125 449.46875 540.125 449.46875 L 540.09375 448.875 L 539.5625 448.625 C 539.00495 448.35919 538.43797 448.2641 537.9375 448.25 z M 375.96875 449.875 C 374.1634 449.88394 373 450.21875 373 450.21875 L 372.4375 450.40625 L 372.3125 451.03125 C 372.3125 451.03125 371.50123 456.11985 375.09375 461.6875 C 378.68627 467.25515 386.60359 473.28713 403.625 475.71875 L 405.59375 476 L 404.65625 474.25 C 393.31522 452.78306 381.38278 449.8482 375.96875 449.875 z M 466.21875 449.875 C 460.80472 449.8482 448.87228 452.78306 437.53125 474.25 L 436.59375 476 L 438.5625 475.71875 C 455.58391 473.28713 463.50123 467.25515 467.09375 461.6875 C 470.68627 456.11985 469.875 451.03125 469.875 451.03125 L 469.75 450.40625 L 469.1875 450.21875 C 469.1875 450.21875 468.0241 449.884 466.21875 449.875 z M 322.53125 457.75 C 314.12953 457.95414 306.78125 459.84375 306.78125 459.84375 L 305.09375 460.28125 L 306.3125 461.53125 C 313.29559 468.51434 324.59428 471.03891 332.90625 470.90625 C 337.06224 470.83995 340.45614 470.18312 342.4375 468.6875 C 343.42818 467.93969 344.09539 466.78838 343.875 465.5625 C 343.65461 464.33662 342.75435 463.23764 341.3125 462.15625 C 336.31288 458.40653 329.0679 457.59118 322.53125 457.75 z M 517.15625 457.75 C 511.32212 457.85093 505.24967 458.87524 500.875 462.15625 C 499.43315 463.23764 498.53289 464.33662 498.3125 465.5625 C 498.09211 466.78838 498.75932 467.93969 499.75 468.6875 C 501.73136 470.18312 505.12526 470.83995 509.28125 470.90625 C 517.59322 471.03891 528.89191 468.51434 535.875 461.53125 L 537.09375 460.28125 L 535.40625 459.84375 C 535.40625 459.84375 528.05797 457.95414 519.65625 457.75 C 518.83917 457.73015 517.9897 457.73558 517.15625 457.75 z M 356.0625 458.65625 C 355.64165 458.65691 355.24158 458.66883 354.84375 458.6875 C 349.89351 458.91975 346.6875 460.4375 346.6875 460.4375 L 346.09375 460.71875 L 346.125 461.375 C 346.125 461.375 346.1934 462.44582 346.8125 463.78125 C 347.43162 465.11668 348.62546 466.80779 350.84375 468.3125 C 355.28033 471.32192 363.67225 473.5937 379.84375 471.4375 L 381.90625 471.15625 L 380.40625 469.71875 C 371.2157 460.81542 362.37532 458.64633 356.0625 458.65625 z M 486.125 458.65625 C 479.81218 458.64633 470.9718 460.81542 461.78125 469.71875 L 460.28125 471.15625 L 462.34375 471.4375 C 478.51525 473.5937 486.90717 471.32192 491.34375 468.3125 C 493.56204 466.80779 494.75588 465.11668 495.375 463.78125 C 495.9941 462.44582 496.0625 461.375 496.0625 461.375 L 496.09375 460.71875 L 495.5 460.4375 C 495.5 460.4375 492.29399 458.91975 487.34375 458.6875 C 486.94592 458.6689 486.54585 458.65691 486.125 458.65625 z M 348.6875 470.9375 C 348.05742 470.9533 347.39505 471.10041 346.75 471.375 L 346.21875 471.59375 L 346.15625 472.1875 C 346.15625 472.1875 345.95288 474.4366 346.53125 476.75 C 346.82043 477.9067 347.29563 479.09346 348.1875 480.0625 C 349.07937 481.03154 350.4311 481.71875 352.09375 481.71875 C 353.66477 481.71875 354.93622 480.87102 355.375 479.6875 C 355.81378 478.50398 355.58837 477.16513 355.09375 475.90625 C 354.1045 473.38849 351.75891 470.86047 348.6875 470.9375 z M 492.9375 470.9375 C 490.14542 471.16099 488.02117 473.54585 487.09375 475.90625 C 486.59913 477.16513 486.37372 478.50398 486.8125 479.6875 C 487.25128 480.87102 488.52273 481.71875 490.09375 481.71875 C 491.7564 481.71875 493.10813 481.03154 494 480.0625 C 494.89187 479.09346 495.36707 477.9067 495.65625 476.75 C 496.23462 474.4366 496.03125 472.1875 496.03125 472.1875 L 495.96875 471.59375 L 495.4375 471.375 C 494.79245 471.10041 494.13008 470.9533 493.5 470.9375 C 493.30804 470.93269 493.12364 470.9226 492.9375 470.9375 z M 375.53125 474.40625 C 369.85787 474.42855 366.12951 476.07186 363.84375 477.75 C 361.55799 479.42814 360.65625 481.21875 360.65625 481.21875 L 360.25 482.0625 L 361.0625 482.53125 C 382.88166 495.07725 400.59375 483 400.59375 483 L 402.03125 482.03125 L 400.46875 481.28125 C 389.53307 476.09143 381.4737 474.38287 375.53125 474.40625 z M 466.65625 474.40625 C 460.7138 474.38287 452.65443 476.09143 441.71875 481.28125 L 440.15625 482.03125 L 441.59375 483 C 441.59375 483 459.30584 495.07725 481.125 482.53125 L 481.9375 482.0625 L 481.53125 481.21875 C 481.53125 481.21875 480.62951 479.42814 478.34375 477.75 C 476.05799 476.07186 472.32963 474.42855 466.65625 474.40625 z M 410.40625 477.03125 L 409.9375 477.5625 L 406.90625 480.96875 L 406.03125 481.96875 L 407.21875 482.53125 L 411.375 484.46875 L 398.375 494.03125 L 397.34375 494.8125 L 398.34375 495.625 C 398.34375 495.625 400.38394 497.32068 402.4375 499.1875 C 403.46428 500.12091 404.50811 501.0969 405.25 501.90625 C 405.62094 502.31093 405.91054 502.67099 406.09375 502.9375 C 406.23116 503.13738 406.27146 503.32005 406.28125 503.28125 C 406.28694 503.37956 406.30876 503.48119 406.375 503.625 C 406.4678 503.82634 406.69091 504.056 406.9375 504.15625 C 407.43069 504.35676 407.71648 504.2003 407.875 504.125 C 408.19205 503.97439 408.31422 503.82376 408.53125 503.625 C 408.9653 503.22748 409.53384 502.64897 410.1875 501.90625 C 411.49482 500.42082 413.18691 498.33057 414.90625 496.1875 C 417.78922 492.59404 420.23777 489.42759 421.09375 488.3125 C 421.95311 489.43196 424.40133 492.59784 427.28125 496.1875 C 429.00059 498.33057 430.69268 500.42082 432 501.90625 C 432.65366 502.64897 433.2222 503.22748 433.65625 503.625 C 433.87328 503.82376 433.99545 503.97439 434.3125 504.125 C 434.47102 504.2003 434.75681 504.35676 435.25 504.15625 C 435.49659 504.056 435.7197 503.82634 435.8125 503.625 C 435.8787 503.48119 435.90025 503.37955 435.90625 503.28125 C 435.91604 503.32005 435.95634 503.13738 436.09375 502.9375 C 436.27696 502.67099 436.56656 502.31093 436.9375 501.90625 C 437.67939 501.0969 438.72322 500.12091 439.75 499.1875 C 441.80356 497.32068 443.84375 495.625 443.84375 495.625 L 444.84375 494.8125 L 443.8125 494.03125 L 430.8125 484.46875 L 434.96875 482.53125 L 436.15625 481.96875 L 435.28125 480.96875 L 432.25 477.5625 L 431.78125 477.03125 L 431.09375 477.3125 L 421.09375 481.59375 L 411.09375 477.3125 L 410.40625 477.03125 z"/>
<path fill="#d87503"
d="m 688.90625,78.96875 c -0.58568,0.0093 -1.18898,0.104662 -1.8125,0.3125 -1.24703,0.415675 -2.50106,1.630298 -2.8125,3.1875 -0.17303,0.865135 -2.06001,3.690722 -3.96875,5.78125 -1.53982,1.686476 -2.48283,2.522831 -3,3 -1.32949,-0.374125 -4.31762,-1.167614 -8.1875,-1.5625 -2.43891,-0.248869 -4.99537,-0.297686 -7.3125,0.25 -2.31713,0.547686 -4.60513,1.90914 -5.4375,4.40625 -0.81257,2.437706 -4.99185,6.95302 -8.96875,10.375 -3.83159,3.29695 -7.14954,5.60061 -7.40625,5.78125 l -12.3125,2.15625 -0.8125,0.15625 -0.5,0.65625 -4.78125,6.84375 -11.9375,1.40625 -1.3125,0.15625 -0.375,1.21875 c 0,0 -0.70382,2.29803 -1.96875,4.40625 -0.63247,1.05411 -1.41669,2.0072 -2.15625,2.59375 -0.73956,0.58655 -1.30035,0.78745 -2,0.6875 -3.13115,-0.44731 -7.47072,-0.0118 -11.21875,0.46875 -3.74803,0.48052 -6.8125,1.0625 -6.8125,1.0625 l -2.25,0.4375 0.71875,2.15625 c 0,0 0.0269,-0.0355 0,0.375 -0.0269,0.41048 -0.14042,1.09636 -0.71875,2 -1.15665,1.80727 -4.28809,4.62434 -12.34375,7.1875 -16.20591,5.15643 -26.84673,13.41241 -27.875,14.21875 -7.84533,-1.35745 -12.80741,-1.46318 -15.8125,-1.0625 -1.5665,0.20887 -2.66198,0.5514 -3.40625,0.875 -0.37214,0.1618 -0.65544,0.32238 -0.875,0.46875 -0.21956,0.14637 -0.46875,0.34375 -0.46875,0.34375 l -0.0937,0.0937 -0.0625,0.0937 c 0,0 -2.72684,3.45614 -6.8125,6.90625 -4.08566,3.45011 -9.48247,6.6875 -14.3125,6.6875 -5.93444,0 -9.25866,1.28811 -11.53125,2.375 -2.27259,1.08689 -3.05564,1.75476 -5.59375,1.4375 -6.69402,-0.83674 -11.95952,3.63624 -12.9375,4.5 l -36.125,-1.5 c -0.2502,-0.0788 -3.48239,-1.08326 -7.53125,-2.1875 -4.20181,-1.14595 -8.75708,-2.34375 -11.6875,-2.34375 -1.49465,0 -5.48984,-1.2481 -10.59375,-2.5 -5.10391,-1.2519 -11.55005,-2.42335 -19,-2.03125 -6.397,0.33669 -15.53771,-3.25454 -22.875,-7.0625 -7.33729,-3.80796 -12.90625,-7.6875 -12.90625,-7.6875 l -2.84375,-2 -0.28125,3.46875 -1.5,18.875 -0.0625,0.71875 0.40625,0.59375 6.375,9.21875 c -0.0499,0.97756 -0.76249,13.88246 -6.0625,24.65625 -2.75131,5.59284 -6.62359,10.33716 -12.0625,12.5 -5.43891,2.16284 -12.68666,1.93565 -22.75,-3.1875 -10.61388,-5.40343 -19.27669,-7.31665 -26.40625,-6.875 -7.12956,0.44165 -12.67575,3.29236 -16.78125,7.09375 -8.21101,7.60279 -11.09231,18.94132 -12.5,22.8125 -2.5499,7.01221 -10.06686,8.4327 -10.4375,8.5 -0.65902,-0.0554 -17.78659,-1.5 -24.75,-1.5 -0.92771,0 -2.17474,-0.61181 -3.5,-1.90625 -1.32526,-1.29444 -2.62251,-3.16831 -3.75,-5.0625 -2.25498,-3.78838 -3.75,-7.625 -3.75,-7.625 l -3.8125,1 3.03125,19.65625 0,0.125 0.0625,0.125 3.78125,12.875 0.25,0.90625 0.875,0.34375 7.71875,3.21875 -1.375,12.125 -0.0625,0.59375 0.28125,0.53125 3.5625,7.09375 0,7.125 0,1.6875 1.6875,0.28125 8.21875,1.25 0.6875,12 0.0312,0.75 0.53125,0.5625 4.4375,4.4375 0.0937,0.0937 15.03125,17.28125 0.5625,0.65625 0.84375,0.0312 16.5,0.71875 6.25,7.625 0.40625,0.5 0.65625,0.15625 8.78125,2.21875 6.59375,3.65625 0.125,0.0625 0.0937,0.0312 c 0,0 3.52514,1.39743 8.65625,5.0625 1.46495,1.0464 2.56093,1.64145 3.875,1.71875 0.65704,0.0387 1.4237,-0.13654 2,-0.5625 0.5763,-0.42596 0.90083,-0.98373 1.0625,-1.46875 0.2534,-0.7602 0.14678,-1.29753 0.0937,-1.8125 l 5.75,-3.84375 0.0625,-0.0312 7.09375,-4.25 7.4375,-0.6875 6.65625,2.6875 11.25,10.5 0,7.46875 0.0312,0 c -0.021,0.19048 -0.20504,1.77081 0,3.71875 0.10855,1.03126 0.30229,2.11605 0.8125,3.1875 0.51021,1.07145 1.48199,2.22986 2.9375,2.59375 2.87243,0.7181 1.98388,0.8125 8.03125,0.8125 3.85199,0 6.41557,-2.52596 7.75,-4.75 1.33443,-2.22404 1.78125,-4.40625 1.78125,-4.40625 l 0.0312,-0.1875 0,-0.21875 0,-11.125 c 0.15909,-0.52932 1.5,-5.05218 1.5,-8.53125 0,-0.1761 0.0639,-0.33645 0.34375,-0.65625 0.27982,-0.3198 0.77499,-0.69285 1.3125,-1 0.98661,-0.56378 1.83671,-0.85615 2,-0.90625 0,0 0.092,-0.0309 0.0937,-0.0312 0.004,-10e-4 0.0937,-0.0312 0.0937,-0.0312 0.16493,-0.0303 2.08964,-0.3739 4.53125,-1.03125 2.54499,-0.68518 5.42678,-1.53103 7.46875,-3.0625 2.65392,-1.99044 5.25328,-2.64107 5.3125,-2.65625 l 9.34375,-2.1875 10.5625,2.8125 8.0625,5.15625 1.96875,1.25 0.90625,-2.15625 2.0625,-4.8125 4.40625,-3.09375 11.5,-0.71875 0.90625,-0.0625 0.5625,-0.71875 4.1875,-5.625 9.28125,-3.53125 0.3125,-0.125 0.28125,-0.25 4.6875,-4.03125 9.125,0 0.8125,0 0.59375,-0.59375 3.6875,-3.6875 0.0937,-0.0937 6.3125,-5.59375 13.03125,-2.15625 1.75,-0.3125 -0.0937,-1.75 c -0.7415,-14.4592 1.84822,-23.74064 4.53125,-29.375 2.34765,-4.93007 4.31453,-6.66251 4.84375,-7.09375 l 4.5,0 c 0,0 2.60673,0.0378 5.15625,1.3125 1.1708,0.58541 2.51959,0.64109 3.5625,0.25 1.04291,-0.39109 1.76194,-1.10086 2.28125,-1.75 0.7113,-0.88913 0.80257,-1.34343 1,-1.84375 l 2.46875,-1.40625 0.21875,1.09375 0.25,1.1875 1.15625,0.3125 8.03125,2.1875 c 0.25375,0.15857 5.89503,3.69952 9.625,5.9375 1.9065,1.14391 3.0929,2.05199 4.875,2.25 0.89105,0.099 2.24268,-0.4075 2.8125,-1.3125 0.56982,-0.905 0.625,-1.73467 0.625,-2.65625 0,-0.84917 0.5846,-2.63795 1.28125,-4.03125 0.68991,-1.37981 1.39306,-2.35515 1.40625,-2.375 1.3e-4,-1.9e-4 0,-0.0312 0,-0.0312 l 5.21875,-5.875 9.6875,0.65625 5.5625,4.84375 0.4375,0.375 0.59375,0.0937 c 0,0 5.29696,0.76956 8.09375,1.46875 3.85561,0.96391 6.875,-1.03125 6.875,-1.03125 l 1.125,-0.75 -0.28125,-1.3125 -2.25,-10.59375 -0.0625,-0.3125 -0.15625,-0.25 -5.3125,-9.09375 -0.21875,-0.375 -0.375,-0.28125 -6.15625,-4.09375 c -0.18775,-1.06418 -0.61554,-2.9414 -2.09375,-5.75 -2.03842,-3.873 -5.87269,-8.85263 -12.9375,-13.5625 -2.92096,-1.9473 -4.36416,-4.69364 -5,-8 -0.63584,-3.30636 -0.34905,-7.12973 0.375,-10.75 1.42039,-7.10197 4.38513,-13.11118 4.5,-13.34375 l 3.90625,-4.5625 11.46875,-2.875 9.09375,-2.25 1.15625,-0.28125 0.28125,-1.15625 1.21875,-4.9375 4.1875,-1.21875 0.71875,-0.1875 0.40625,-0.59375 2.9375,-4.4375 0.0625,-0.0937 0.0312,-0.0312 5.1875,-6.6875 0.0937,-0.0937 0.0625,-0.0937 6.09375,-10.1875 3.1875,0.5625 1.21875,0.1875 0.71875,-0.96875 6.125,-8.21875 9.53125,0.6875 1.0625,0.0937 0.625,-0.84375 5.125,-6.59375 7.3125,-5.09375 0.3125,-0.21875 0.1875,-0.3125 2.4375,-3.65625 6.5,0 0.46875,0 0.40625,-0.21875 3.03125,-1.5 0.53125,-0.25 0.28125,-0.5 2.28125,-3.78125 0.1875,-0.3125 0.0625,-0.375 1.25,-7.5625 9.03125,-0.625 1.65625,-0.125 0.1875,-1.65625 0.5625,-5.78125 11.0625,0 1.96875,0 0,-1.96875 0,-6.375 7.28125,-3.96875 0.9692,-0.53135 L 695,94.34375 695.78125,82.25 l 0.0625,-1.375 -1.25,-0.5625 c 0,0 -1.85795,-0.849283 -4,-1.1875 -0.53551,-0.08455 -1.10182,-0.165521 -1.6875,-0.15625 z"/>
</svg>