<?xml version="1.0" encoding="UTF-8"?>
<svg xmlns="http://www.w3.org/2000/svg" width="675" height="450">
<rect width="675" height="450" fill="#012a87"/>
<rect width="675" height="225" fill="#dc171d"/>
<path d="M0,0V450L300,225z" fill="#fff"/>
<g transform="matrix(0.3358457,0,0,0.3358462,22.073663,254.82087)">
<g transform="matrix(2.9999964,0,0,2.9994449,-746.32978,-2781.9855)">
<path fill="#ff0" d="M377.17,843.11l0.1-3.46s-1.86-2.96,0.29-6.14c0,0-4.57-2.42-3.51-6.21,0,0-4.14-1.06-3.83-5.61,0,0-4.47-0.31-4.93-4.12,0,0-4.47,0.74-6.44-2.97,0,0-4.36,0.85-5.59-2.2,0,0-4.23,1.46-6.75-2.13,0,0-4.47,1.81-6.35-1.58-1.85,3.38-6.32,1.58-6.32,1.58-2.48,3.58-6.75,2.1-6.75,2.1-1.19,3.06-5.54,2.19-5.54,2.19-1.96,3.71-6.42,2.97-6.42,2.97-0.44,3.8-4.9,4.11-4.9,4.11,0.36,4.56-3.78,5.6-3.78,5.6,1.09,3.79-3.48,6.21-3.48,6.21,2.21,3.19,0.37,6.13,0.37,6.13l-0.1,3.19,73.95,0.34"/>
<path d="M377.17,843.11l0.1-3.46s-1.86-2.96,0.29-6.14c0,0-4.57-2.42-3.51-6.21,0,0-4.14-1.06-3.83-5.61,0,0-4.47-0.31-4.93-4.12,0,0-4.47,0.74-6.44-2.97,0,0-4.36,0.85-5.59-2.2,0,0-4.23,1.46-6.75-2.13,0,0-4.47,1.81-6.35-1.58-1.85,3.38-6.32,1.58-6.32,1.58-2.48,3.58-6.75,2.1-6.75,2.1-1.19,3.06-5.54,2.19-5.54,2.19-1.96,3.71-6.42,2.97-6.42,2.97-0.44,3.8-4.9,4.11-4.9,4.11,0.36,4.56-3.78,5.6-3.78,5.6,1.09,3.79-3.48,6.21-3.48,6.21,2.21,3.19,0.37,6.13,0.37,6.13l-0.1,3.19,73.95,0.34h-0.02z" stroke="#000" stroke-width="0.27124387" fill="#f9d90f"/>
<path fill="#dc171d" d="M375.45,838.79c-11.62-1.16-24.99-3.92-35.32,1.89-6.92-4.07-16.55-3.82-24.76-3.03-4.46,0.8-9.7,0.8-14.35,1.56l-0.73,0.1c-8.45,0.57-16.12-1.93-23.46-5.21,2.33,13.23,4.92,26.79,6.19,40.65,2.77,20.52-9.71,37.75-4.59,58.02,3.06,9.73,13.75,15.38,23.54,16.5,9.48,0.56,19.29,2.11,28.06,4.02,1.67,0.34,3.64,1.12,4.79,1.62,2.42,1.01,4.19,2.49,5.75,4.08,5.29-5.51,13.05-7.05,20.71-7.86,13.8-1.61,30.81-0.73,39.26-13.24v-0.7c4.59-6.92,3.99-17.47,1.99-25.3-0.13-2.74-0.86-5.15-1.26-7.75-8.43-22.27-1.21-47.31,2.42-69.76-4.43,2.43-9.37,3.57-14.3,4.78-3.94,0.53-8.32,0.29-12.3,0.08l-1.65-0.45"/>
<path fill="#62afe1" d="M392.79,902.7c-0.05,1.46,0.74,2.61,1.03,3.97,1.61,9.73,3.17,22.63-6.85,28.67-11.09,7.05-25.62,4.03-38.45,7.76-2.56,0.71-6.09,3.07-7.89,4.73-1.16-0.76-2.32-1.93-3.81-2.61-10.56-5.62-24.28-3.74-36.19-6.77-5.99-1.89-12.23-6.55-13.74-12.68-3.9-16.07,5.43-29.76,4.33-45.71-0.71-12.17-2.76-23.86-5.57-35.27,9.31,4.34,20.1,5.06,30.57,2.98,7.75-1.08,16.78-1.11,24.05,2.17,4-1.72,8.69-2.49,13.01-2.97,8.2,0.8,17.02,2.29,25.47,2.22,5.64-0.29,10.77-1.92,15.68-4.09-2.91,18.86-8.5,38.62-1.64,57.6"/>
<path fill="#fff" d="M376.04,906.46l-0.09-17.74h2.19l-27.12-17.51-0.05-9.1h2.62l-13.55-9.71-13.49,9.7h2.61l0.05,9.09-26.97,17.49,2.15,0.02,0.1,17.72,71.55,0.05"/>
<g stroke="#000" stroke-width="1.16422367" fill="none">
<path d="M376.04,906.46l-0.09-17.74h2.19l-27.12-17.51-0.05-9.1h2.62l-13.55-9.71-13.49,9.7h2.61l0.05,9.09-26.97,17.49,2.15,0.02,0.1,17.72,71.55,0.05v-0.01z"/>
<path fill="#fff" stroke="none" d="M384.38,929.76v5.55l-87.35-0.1-0.03-5.52,87.38,0.07"/>
<path d="M384.38,929.76v5.55l-87.35-0.1-0.03-5.52,87.38,0.07z"/>
<path fill="#fff" stroke="none" d="M302.84,929.43l-0.08-18.79,3.54-0.01-0.2,19.01,0.22-18.85-5.1-0.15v-4.03l78.07,0.09,0.03,3.99h-4.81l0.09,19.02-0.17-19.02h3.58l0.08,18.81"/>
<path d="M302.84,929.43l-0.08-18.79,3.54-0.01-0.2,19.01,0.22-18.85-5.1-0.15v-4.03l78.07,0.09,0.03,3.99h-4.81l0.09,19.02-0.17-19.02h3.58l0.08,18.81"/>
<path d="M319.62,924.8l-0.06-13.1h-10.48l0.06,13.09,10.48,0.01"/>
<path d="M311.94,914.43l0.03,7.61h4.79l-0.02-7.61h-4.8"/>
<path d="M370.86,924.84l-0.06-13.09-10.44-0.01,0.04,13.1h10.46"/>
<path d="M363.18,914.48l0.05,7.59h4.8l-0.05-7.59h-4.8"/>
<path d="M370.78,903.51l-0.06-13.1h-10.46l0.04,13.1h10.49-0.01z"/>
<path d="M363.1,893.16l0.03,7.6h4.79v-7.6h-4.82"/>
<path d="M319.53,903.46l-0.07-13.08-10.46-0.01,0.05,13.08h10.48v0.01z"/>
<path d="M311.85,893.11l0.03,7.59,4.8,0.01-0.04-7.6h-4.79"/>
<path d="M338.5,903.48l-0.05-13.07-10.47-0.02,0.05,13.09h10.47"/>
<path d="M330.83,893.13l0.02,7.58,4.8,0.03-0.03-7.61h-4.79"/>
<path d="M353.12,903.51l-0.07-13.1-10.46-0.02,0.05,13.09,10.48,0.03"/>
<path d="M345.44,893.14l0.03,7.61h4.8l-0.03-7.61h-4.8"/>
<path fill="#fff" stroke="none" d="M355.72,899.49l0.11,30.2-30.33-0.05-0.11-30.18,30.32,0.03"/>
<path d="M355.72,899.49l0.11,30.2-30.33-0.05-0.11-30.18,30.32,0.03h0.01z"/>
<path d="M325.21,908.11l30.54,0.02"/>
<path d="M329.02,929.68l-0.11-21.35"/>
<path d="M352.14,929.69l-0.1-21.33"/>
<path d="M366.79,886.63l-17.08-12.48-19.19-0.02-16.95,12.45,53.22,0.05"/>
<path d="M331.99,863.8l0.03,7.61,16.15,0.01-0.03-7.61-16.15-0.01"/>
<path d="M336.37,865.69l0.03,3.79h7.41l-0.02-3.79h-7.42"/>
<path d="M340.04,855.14l8.97,6.35-17.89-0.02,8.92-6.33"/>
<path fill="#fff" stroke="none" d="M376.34,850.84c2.55-0.06,3.21,10.5,3.21,15.74,2.2,0.61,7.05,3.67,9.2,6.43l-24.64-0.03c2.12-2.73,6.94-5.8,9.11-6.41,0-5.24,0.54-15.8,3.12-15.74"/>
<path d="M376.34,850.84c2.55-0.06,3.21,10.5,3.21,15.74,2.2,0.61,7.05,3.67,9.2,6.43l-24.64-0.03c2.12-2.73,6.94-5.8,9.11-6.41,0-5.24,0.54-15.8,3.12-15.74"/>
<path d="M326.81,900.33h2.21l-0.65,1.19s1.07,1.37,0.02,2.94l0.58,1.09h-2.13l0.58-1.03s-1.09-1.82,0.05-3l-0.66-1.19"/>
<path d="M331.31,900.33h2.21l-0.64,1.19s1.07,1.33,0.01,2.94l0.57,1.09h-2.12l0.57-1.03s-1.07-1.82,0.05-3l-0.65-1.19"/>
<path d="M336.23,900.33h2.2l-0.66,1.19s1.08,1.37,0.02,2.94l0.58,1.12-2.11-0.03,0.56-1.03s-1.08-1.81,0.04-3l-0.64-1.19h0.01z"/>
<path d="M341.77,900.35h2.22l-0.65,1.2s1.07,1.34,0.01,2.92l0.59,1.11h-2.14l0.57-1.04s-1.06-1.83,0.08-2.99l-0.67-1.2h-0.01z"/>
<path d="M346.7,900.35h2.2l-0.65,1.2s1.07,1.34,0.02,2.91l0.58,1.12h-2.12l0.55-1.04s-1.07-1.82,0.08-2.99l-0.66-1.2"/>
<path d="M351.6,900.36l2.21-0.01-0.66,1.2s1.09,1.34,0.03,2.92l0.56,1.11h-2.13l0.57-1.04s-1.07-1.82,0.07-2.99l-0.65-1.19"/>
</g>
<g stroke="#000" stroke-width="0.27124387">
<path d="M340.7,968.4c11.36,0.03,25.33-2.29,31.87-5.67l14.37-1.27,0.29,17.54c-12.17,6.71-40.29,8.15-46.47,8.1-6.19,0.05-34.65-1.41-46.88-8.15l0.16-17.55,14.4,1.29c6.55,3.37,20.94,5.71,32.29,5.71h-0.03" fill="#f9d90f"/>
<path d="M256.88,893.59l12.66,4.03-3.82,20.5-11.99,1.86s-2.02-10.78,3.15-26.4" fill="#f9d90f"/>
<path d="M265.71,917.9l-11.98,2.08,7.58-10.78,4.4,8.7" fill="#f9b60f"/>
<path d="M249.31,908.36l12.21,0.88c0.27,10.34,1.52,49.81,48.65,51.96l-1.47,14.36c-57.36,0.59-61.72-48.42-59.39-67.2" fill="#f9d90f"/>
<path d="M294.11,978.5l14.38-3.15" fill="none"/>
<path d="M423.52,893.74l-12.62,3.99,4,20.47,12.01,1.93s1.93-10.77-3.39-26.41v0.02z" fill="#f9d90f"/>
<path d="M414.9,917.99l12.01,2.15-7.68-10.78-4.33,8.63" fill="#f9b60f"/>
<path d="M431.23,908.52l-12.22,0.84c-0.18,10.33-1.08,49.81-48.21,51.91l1.6,14.35c57.36,0.66,61.3-48.32,58.83-67.1" fill="#f9d90f"/>
<path d="M387.04,978.57l-14.42-3.15" fill="none"/>
</g>
<g fill="#012a87">
<path d="M333.07,977.04c-0.32,0.21-0.76,0.26-1.26,0.24l-2.28-0.12,0.19-2.84,2.26,0.12c0.45,0.03,0.8,0.12,1.02,0.25,0.46,0.24,0.66,0.68,0.61,1.29-0.03,0.52-0.21,0.86-0.54,1.06m-3.83,4.48l0.23-3.47,2.65,0.18c0.86,0.07,1.5-0.15,1.93-0.59,0.45-0.43,0.68-0.99,0.71-1.62,0.06-0.74-0.13-1.34-0.57-1.79-0.42-0.42-1.01-0.65-1.76-0.72l-3.8-0.24-0.52,8.16,1.13,0.07"/>
<path d="M337.5,974.69l2.77,0.03c0.4,0.04,0.72,0.09,0.95,0.2,0.43,0.2,0.63,0.6,0.63,1.18,0,0.55-0.16,0.92-0.47,1.14-0.3,0.2-0.73,0.29-1.25,0.29l-2.66-0.03,0.02-2.81m-0.04,7.23l0.02-3.49,2.61,0.04c0.46,0,0.8,0.04,1.04,0.15,0.38,0.18,0.57,0.55,0.59,1.06l0.07,1.37c0.01,0.33,0.02,0.53,0.04,0.67,0.04,0.09,0.05,0.2,0.1,0.27h1.4l-0.02-0.18c-0.16-0.08-0.29-0.25-0.34-0.5-0.05-0.15-0.08-0.39-0.09-0.69l-0.02-1.09c-0.02-0.49-0.11-0.83-0.29-1.02-0.17-0.22-0.39-0.41-0.74-0.53,0.39-0.2,0.68-0.44,0.89-0.73,0.21-0.32,0.31-0.73,0.31-1.23,0-0.94-0.38-1.58-1.16-1.92-0.42-0.19-0.96-0.29-1.59-0.3l-3.92-0.04-0.03,8.18h1.13"/>
<path d="M346.14,980.21c-0.5-0.61-0.77-1.37-0.83-2.27-0.06-1.14,0.16-2,0.68-2.59,0.52-0.63,1.2-0.93,2.08-0.98,0.89-0.05,1.62,0.24,2.16,0.8,0.56,0.54,0.87,1.31,0.93,2.25,0.03,0.92-0.13,1.73-0.55,2.44-0.41,0.72-1.1,1.13-2.12,1.16-1.06,0.05-1.85-0.2-2.35-0.81m-1.34-5.15c-0.53,0.81-0.74,1.74-0.69,2.88,0.08,1.22,0.46,2.23,1.17,2.99,0.79,0.76,1.84,1.15,3.13,1.07,1.38-0.06,2.42-0.58,3.13-1.54,0.57-0.87,0.85-1.89,0.79-3.13-0.08-1.12-0.41-2.02-1.01-2.7-0.76-0.91-1.87-1.31-3.38-1.25-1.43,0.09-2.47,0.62-3.15,1.68"/>
<path d="M383.24,963.29c0.78-0.13,1.46-0.1,2.09,0.12,0.91,0.28,1.52,0.96,1.91,1.99l-1.13,0.16c-0.24-0.56-0.59-0.94-1.06-1.16-0.45-0.2-1.03-0.25-1.68-0.15-0.77,0.12-1.39,0.5-1.82,1.12-0.42,0.65-0.55,1.53-0.36,2.65,0.15,0.93,0.5,1.71,1.06,2.23,0.51,0.54,1.27,0.73,2.27,0.59,0.74-0.12,1.34-0.42,1.76-0.93,0.43-0.49,0.56-1.23,0.42-2.18l-2.63,0.41-0.13-0.91,3.65-0.56,0.71,4.33-0.72,0.11-0.45-1c-0.31,0.45-0.61,0.8-0.88,1-0.45,0.36-1.06,0.58-1.82,0.69-0.99,0.15-1.89-0.02-2.7-0.55-0.9-0.66-1.48-1.65-1.69-3.02-0.24-1.34-0.03-2.49,0.59-3.4,0.59-0.88,1.45-1.39,2.61-1.55"/>
<path d="M391.5,962.66l2.62-0.95c0.35-0.14,0.67-0.18,0.93-0.15,0.48,0.04,0.84,0.32,1.04,0.9,0.19,0.48,0.19,0.91-0.03,1.21-0.22,0.31-0.57,0.53-1.09,0.72l-2.46,0.88-1.01-2.61m2.62,6.76l-1.28-3.28,2.43-0.88c0.46-0.14,0.78-0.22,1.01-0.2,0.44,0.06,0.76,0.32,0.98,0.82l0.56,1.25c0.12,0.31,0.22,0.49,0.3,0.58,0.03,0.11,0.11,0.18,0.17,0.25l1.32-0.49-0.07-0.17c-0.2,0-0.38-0.11-0.52-0.33-0.11-0.15-0.2-0.37-0.34-0.62l-0.44-1.03c-0.19-0.44-0.39-0.72-0.62-0.88-0.24-0.13-0.53-0.21-0.87-0.24,0.26-0.31,0.46-0.62,0.53-0.98,0.08-0.37,0.04-0.79-0.13-1.25-0.34-0.87-0.95-1.35-1.82-1.41-0.45-0.03-0.98,0.06-1.58,0.28l-3.68,1.31,2.97,7.69,1.08-0.4"/>
<path d="M403.69,965.37l-4.67-6.82,5.13-3.27,0.56,0.83-4.2,2.68,1.44,2.08,3.88-2.49,0.53,0.79-3.88,2.5,1.58,2.3,4.28-2.74,0.56,0.81-5.21,3.33"/>
<path d="M407.78,953.32l1.33-1.47c0.63-0.66,1.28-0.95,2-0.87,0.72,0.06,1.45,0.44,2.23,1.12,0.21,0.17,0.4,0.38,0.6,0.62,0.34,0.44,0.54,0.83,0.67,1.22,0.11,0.49,0.08,0.93-0.09,1.36-0.1,0.21-0.29,0.46-0.56,0.76l-1.34,1.46-4.84-4.21m7.07,3.21c0.95-1.05,1.16-2.17,0.6-3.44-0.32-0.69-0.81-1.36-1.5-1.95-0.85-0.76-1.75-1.15-2.69-1.22-1.05-0.08-1.94,0.3-2.71,1.14l-2.28,2.45,6.29,5.49,2.28-2.46"/>
<path d="M419.73,950.17l-7.25-4.25,0.59-0.94,7.26,4.23-0.6,0.97"/>
<path d="M422.57,945.23l-7.82-3.13,2.3-5.5,0.95,0.36-1.88,4.54,2.36,0.92,1.76-4.17,0.9,0.37-1.74,4.17,2.63,1.07,1.93-4.59,0.95,0.36-2.35,5.6"/>
<path d="M426.16,935.62l-8.23-1.82,0.27-1.27,7.61-2.57-6.68-1.47,0.24-1,8.23,1.77-0.26,1.24-7.61,2.62,6.67,1.44-0.23,1.06"/>
<path d="M425.51,925.17l0.1-1.03c0.48,0.01,0.88-0.07,1.18-0.23,0.6-0.32,0.95-0.94,1.04-1.84,0.03-0.43,0.02-0.8-0.08-1.15-0.18-0.69-0.56-1.06-1.18-1.12-0.45-0.05-0.78,0.06-1.02,0.31-0.21,0.28-0.44,0.7-0.61,1.28l-0.38,1.08c-0.24,0.7-0.46,1.19-0.71,1.46-0.39,0.52-0.94,0.69-1.64,0.64-0.74-0.07-1.35-0.37-1.78-0.95-0.45-0.52-0.63-1.27-0.52-2.19,0.07-0.85,0.35-1.56,0.85-2.13,0.46-0.53,1.18-0.78,2.1-0.68l-0.09,1.04c-0.45,0-0.8,0.07-1.07,0.26-0.47,0.26-0.73,0.81-0.81,1.62-0.07,0.67,0.02,1.12,0.28,1.46,0.25,0.29,0.58,0.47,0.95,0.5,0.41,0.04,0.72-0.09,0.94-0.4,0.16-0.21,0.35-0.67,0.6-1.42l0.38-1.14c0.18-0.52,0.4-0.92,0.65-1.21,0.46-0.47,1.06-0.67,1.8-0.62,0.92,0.1,1.57,0.48,1.9,1.17,0.33,0.7,0.46,1.47,0.38,2.35-0.1,0.99-0.43,1.77-1.02,2.3-0.6,0.53-1.34,0.71-2.24,0.64"/>
<path d="M254.9,924.67l0.19,1.02c-0.46,0.1-0.83,0.28-1.09,0.52-0.48,0.45-0.65,1.12-0.48,2.04,0.07,0.39,0.21,0.77,0.39,1.08,0.36,0.62,0.84,0.87,1.44,0.77,0.44-0.08,0.74-0.25,0.88-0.56,0.13-0.32,0.23-0.79,0.26-1.4l0.05-1.15c0.04-0.71,0.12-1.27,0.28-1.58,0.25-0.56,0.71-0.91,1.41-1.02,0.75-0.14,1.41,0.03,1.98,0.46,0.57,0.39,0.95,1.08,1.09,1.99,0.17,0.84,0.09,1.59-0.24,2.26-0.31,0.66-0.92,1.06-1.85,1.23l-0.18-1.03c0.43-0.16,0.75-0.31,0.96-0.53,0.37-0.4,0.48-0.99,0.34-1.8-0.11-0.66-0.34-1.09-0.68-1.3-0.33-0.25-0.67-0.35-1.03-0.29-0.41,0.07-0.68,0.29-0.81,0.66-0.08,0.24-0.14,0.74-0.19,1.52l-0.06,1.19c-0.03,0.56-0.11,1.02-0.3,1.34-0.3,0.58-0.8,0.94-1.54,1.06-0.93,0.16-1.65-0.06-2.16-0.65-0.52-0.59-0.85-1.29-1.01-2.16-0.18-1.03-0.05-1.84,0.36-2.48,0.42-0.66,1.09-1.05,1.99-1.18"/>
<path d="M254.38,935.46l8.05-2.42,1.87,5.67-0.98,0.31-1.53-4.66-2.45,0.74,1.42,4.3-0.94,0.3-1.4-4.31-2.73,0.81,1.56,4.76-0.96,0.28-1.91-5.78"/>
<path d="M257.95,945.29l7.4-3.93,0.79,1.38-5.09,5.39,7.44-1.28,0.76,1.37-7.38,3.91-0.53-0.91,4.36-2.3c0.16-0.09,0.4-0.22,0.76-0.41,0.34-0.16,0.73-0.37,1.12-0.57l-7.4,1.26-0.54-0.96,5.05-5.37-0.24,0.12c-0.16,0.1-0.43,0.23-0.8,0.44-0.37,0.23-0.64,0.37-0.82,0.44l-4.35,2.33-0.53-0.92"/>
<path d="M271.74,956.19c-0.37-0.08-0.73-0.3-1.09-0.67l-1.57-1.61,2.11-1.93,1.57,1.61c0.31,0.3,0.5,0.59,0.61,0.84,0.14,0.48,0,0.92-0.45,1.33-0.4,0.37-0.8,0.52-1.18,0.43m-5.95,0.75l2.59-2.37,1.83,1.86c0.59,0.6,1.19,0.88,1.82,0.86,0.65-0.03,1.2-0.27,1.69-0.73,0.55-0.49,0.81-1.06,0.81-1.68-0.01-0.59-0.28-1.15-0.79-1.68l-2.63-2.68-6.12,5.62,0.79,0.8"/>
<path d="M273.18,963.51l4.44-6.95,5.24,3.19-0.54,0.83-4.31-2.59-1.34,2.11,3.97,2.4-0.52,0.8-3.96-2.39-1.51,2.36,4.36,2.62-0.52,0.82-5.31-3.2"/>
<path d="M286.31,962.17l2.67,0.85c0.38,0.11,0.65,0.26,0.84,0.42,0.34,0.32,0.43,0.79,0.23,1.35-0.17,0.48-0.42,0.8-0.81,0.94-0.34,0.06-0.78,0.06-1.29-0.1l-2.52-0.81,0.88-2.65m-2.3,6.84l1.11-3.32,2.49,0.81c0.44,0.11,0.76,0.27,0.92,0.44,0.31,0.27,0.4,0.68,0.24,1.18l-0.37,1.32c-0.08,0.33-0.12,0.54-0.16,0.64,0,0.1,0,0.21,0.02,0.28l1.31,0.43,0.07-0.19c-0.14-0.11-0.21-0.31-0.21-0.56,0.03-0.15,0.07-0.39,0.16-0.68l0.32-1.05c0.12-0.47,0.17-0.81,0.06-1.06-0.1-0.27-0.26-0.5-0.54-0.73,0.42-0.07,0.77-0.2,1.08-0.42,0.29-0.25,0.53-0.6,0.67-1.09,0.3-0.88,0.14-1.62-0.52-2.18-0.33-0.29-0.8-0.54-1.41-0.77l-3.73-1.15-2.6,7.76,1.09,0.34"/>
</g>
<path fill="#bc715f" d="M295.32,827.76c0.96-2.32,9.87-8.64,39.12-5.87,0,0,4.94,3.02,7.84,2.63,1.66-0.22-0.97,0.1-3.13-1.7-2.21-1.79-2.68-5.47,2.36-5.38,5.01,0.13,23.76,1.19,24.12,2.88,0.33,1.7-9.92,2.41-13.73,2.32-3.83-0.11-3.38,1.83,0.43,1.68,11.9-0.42,24.9-4.62,38.63,5.09,1.63,1.18-4.14,1.37-8.61-0.53,0,0-12.11,0.63-17.34-0.23,0,0-4.03,3.27-9.27,2.95,0.68,1.7-1.93,8.04-18.41,3.27-2.72,0.84-12.64,2.5-11.56-0.45-2.61,0-7.19,0.84-7.87-0.64-0.66-1.47,8.06-3.68,9.59-5.26,0,0-18.44,0.18-21.93-1.09,0,0-10.88,2.44-10.24,0.32"/>
<path fill="#008830" d="M301.23,853.58c0.39-0.53,0.55-1.49,1.39-1.47,1.83,0.49,3.07,3.83,5.32,1.66,0.79-0.17,1.1,0.91,1.76,1.04,0.42,1.85,1.91-0.38,3.02-0.25,2.38-1.06,5.33-1.31,8.15-0.79,0.08,1.82-1.34,3.83-3.13,4.87,0.03,1.83,1.7,3,1.67,4.85-0.29,0.69-0.05,1.77-1.09,1.99-1.32-0.23-2.63-0.37-3.72-1.11-0.14-0.13-0.25-0.4-0.53-0.31-0.13,0.61,0.83,1.22,1.21,1.85-0.67,1.13-1.77,0.1-2.69,0.11-0.28,0.65-0.01,1.47-0.68,1.89-1.17-0.03-1.41-1.31-2.13-1.94-0.73,0.8,0.52,1.27,0.7,1.91-0.45,2.39-0.39,4.74-2.79,6.31l-1.61,0.8c-0.44-1.21-0.16-3.04-0.46-4.3-0.95,1.55-1.69,2.9-3.08,4.21-1.63-0.53-2.58-2.46-2.94-4.05-0.68-1.86-0.29-4.08,1.17-5.43-0.5-0.97-2.21-0.75-2.45-2.13-2.56-1.67-3.98,2.92-5.64,0.53-0.53-2.23,0.11-5,1.72-6.66-0.36-0.91-1.55-0.67-2.26-1.2-1.61-1.37-3.94-2.81-3.82-5.29,4.41-1.66,9.69-0.44,12.9,2.91"/>
<path fill="#f9d90f" d="M303.52,853.33c-0.11,2.02,1.36,0.55,2.45,1.78-0.85-0.34-1.47,1.47-2.31,0.43l-0.52,0.5c0.3,0.7,0.9,0.79,0.28,1.55-0.91,0.35-1.1-0.8-1.52-1.25-0.07-0.2,0.14-0.58-0.2-0.71-0.51,0.44-1.06,0.6-1.77,0.52-0.19-0.39-0.57-0.9-0.19-1.2,0.7-0.94,1.79,0.34,2.32-0.32,0.08-0.58-0.43-1.3,0.23-1.7,0.46,0.08,1.05-0.17,1.23,0.4"/>
<path fill="#f9d90f" d="M308.98,854.99c0.05,0.39-0.2,0.94,0.31,1.21,0.66-0.36,1.37-0.08,1.75,0.57,0,0.36,0.11,0.82-0.36,0.99l-1.03-0.19c0.07-0.21-0.26-0.33-0.39-0.53-0.45-0.14-0.72,0.23-1.06,0.46,0.25,0.39,0.85,0.6,0.71,1.1-0.61,0.61-0.91-0.52-1.58-0.24-0.46-0.17,0.16-1.12-0.56-1.41-0.85,0-0.28,1.4-1.37,0.85-0.39-0.44-0.77-1.03-0.35-1.52,0.45-0.3,1.23-0.23,1.61,0.17,0.67-0.74,0.74-3.58,2.32-1.46"/>
<path fill="#f9d90f" d="M302.18,857.92c0.44,0.64-0.1,1.51,0.47,2.23,0.89-1.67,1.74,0.35,2.8,0.2,0.33,0.39,0.11,0.94,0.17,1.39-1.3,0.35-2.88,0.76-4.04-0.29l-0.32,0.38c0.69,0.64,1.34,1.36,0.79,2.43-0.98,0.21-2.5,0.24-2.99-0.77-0.25-0.84,0.6-1.44-0.3-2.11-0.65,0.81-0.62,1.89-1.98,1.16-0.84-0.46-1.09-1.42-0.67-2.22,0.88-1.39,2.41,0.04,3.36-0.64,0.13-1.18-0.3-2.22,0.78-2.88,0.94-0.16,1.37,0.54,1.93,1.12"/>
<path fill="#fff" d="M305.89,858.65c-0.44,2.02-1.96-0.11-2.67-0.19,0.95-1.69,1.55,0.55,2.67,0.19"/>
<path fill="#fff" d="M310.63,860.85c-1.06,0.29-0.89-1.03-1.41-1.54l0.4-0.38c0.39,0.47,0.68,1.3,1.01,1.92"/>
<path fill="#f9d90f" d="M309.2,860.44c0.3,0.7-0.69,1.26,0.16,1.78,0.26-0.23,0.59-0.54,0.73-0.67,0.73,0.22,1.57,0.34,2.07,1.06,0.54,1.49-0.96,1.45-1.81,1.86l-0.85-0.03c0.2-0.42-0.36-0.59-0.5-0.88-0.39-0.1-0.72,0.02-0.94,0.35,0.19,0.95,1.34,1.68,0.16,2.52-1.01-0.06-2.57,0.33-2.47-1.06-0.38-0.79,1.02-2-0.48-2.05-0.49,1.06-1.03,2.08-2.32,1.08l0.16-1.51c1.23,0.04,2.68,0.25,3.24-1.12,0.35-1-0.62-1.92,0.25-2.71,1.25-0.29,1.96,0.55,2.6,1.38"/>
<path fill="#000" d="M308.3,862.71c0.31,0.75-0.54,0.8-0.94,1.17-0.54,0.05-0.92-0.17-1.25-0.53-0.24-0.91,0.43-1,0.95-1.36,0.6-0.25,0.85,0.45,1.24,0.72"/>
<path fill="#fff" d="M307.56,863.2c-0.13,0.18-0.32,0.12-0.52,0.17l-0.19-0.9c0.4,0.03,0.92,0.16,0.71,0.73"/>
</g>
</g>
</svg>